<svg width="161" height="159" viewBox="0 0 161 159" fill="none" xmlns="http://www.w3.org/2000/svg">
<path d="M113.414 11.925C105.483 3.975 95.1724 0 85.6552 0C76.1379 0 65.0345 3.975 57.8965 11.925L11.8966 56.445C-3.96552 72.345 -3.96552 96.99 11.8966 112.89C27.7586 128.79 52.3448 128.79 68.2069 112.89L113.414 67.575C128.483 52.47 128.483 27.03 113.414 11.925ZM102.31 56.445L80.1034 78.705L51.5517 50.88L17.5 78.705C17.5 72.345 18.2414 72.345 23.7931 67.575L69 22.26C72.9655 18.285 79.3103 15.9 84.8621 15.9C90.4138 15.9 96.7586 18.285 101.517 22.26C111.034 32.595 111.034 46.905 102.31 56.445ZM140.379 40.545C140.379 46.905 138.793 52.47 137.207 58.83C145.138 68.37 145.138 82.68 136.414 91.425L114.207 113.685L102.31 101.76L80.1034 124.02C69.7931 134.355 55.5172 139.92 42.0345 139.92C43.6207 142.305 45.2069 144.69 47.5862 147.075C63.4483 162.975 88.0345 162.975 103.897 147.075L149.103 101.76C164.966 85.86 164.966 61.215 149.103 45.315C145.138 43.725 142.759 42.135 140.379 40.545Z" fill="#031C6E"/>
<path d="M46.745 45.0469L52.2732 50.8139L15.8294 82.9815L19.712 70.4716L46.745 45.0469Z" fill="#29ABE2"/>
</svg>
