<svg width="294" height="320" viewBox="0 0 294 320" fill="none" xmlns="http://www.w3.org/2000/svg">
<path fill-rule="evenodd" clip-rule="evenodd" d="M271.334 0H230.175C231.874 0.529844 233.308 1.71847 234.131 3.3627L245.664 26.3848H267.273V53.0771H26.7273V26.3848H48.3363L59.8691 3.3627C60.4237 2.25319 61.2787 1.32117 62.3369 0.672424C62.8016 0.387572 63.2973 0.162343 63.8122 0H22.6655C9.84684 1.95919 0 13.0428 0 26.3848V79.7694H13.3636V293.308C13.3636 308.029 25.3508 320 40.0909 320H253.909C268.649 320 280.636 308.029 280.636 293.308V79.7694H294V26.3848C294 13.0428 284.153 1.95919 271.334 0ZM40.0909 79.7694H253.909V293.308H40.0909V253.269H120.273V226.577H40.0909V199.885H120.273V173.192H40.0909V146.5H120.273V119.808H40.0909V79.7694Z" fill="#001859"/>
<rect x="39" width="211" height="26.3" fill="#001859"/>
<rect x="204" y="181" width="27" height="28" rx="13.5" fill="#29ABE2"/>
<rect x="147" y="247" width="16" height="17" rx="8" fill="#29ABE2"/>
<rect x="231" y="264" width="8" height="9" rx="4" fill="#29ABE2"/>
</svg>
